G04 ---------------------------- Layer name :TOP SILK LAYER*
G04 EasyEDA v5.8.20, Mon, 11 Feb 2019 17:59:45 GMT*
G04 65bf9d44a92e4a059924f4159289745f*
G04 Gerber Generator version 0.2*
G04 Scale: 100 percent, Rotated: No, Reflected: No *
G04 Dimensions in inches *
G04 leading zeros omitted , absolute positions ,2 integer and 4 decimal *
%FSLAX24Y24*%
%MOIN*%
G90*
G70D02*

%ADD23C,0.010000*%
%ADD24C,0.007874*%
%ADD25C,0.008000*%
%ADD26C,0.007992*%
%ADD27C,0.007000*%
%ADD28C,0.006000*%

%LPD*%
G54D23*
G01X11369Y12355D02*
G01X18456Y12355D01*
G01X11369Y2317D02*
G01X18455Y2315D01*
G01X18456Y12355D02*
G01X18456Y2315D01*
G01X11368Y12355D02*
G01X11368Y2317D01*
G01X11368Y9992D02*
G01X18456Y9992D01*
G54D24*
G01X12551Y10546D02*
G01X12551Y11963D01*
G01X13338Y11963D01*
G01X13338Y10782D01*
G01X14126Y10782D01*
G01X14126Y11963D01*
G01X14913Y11963D01*
G01X14913Y10782D01*
G01X15701Y10782D01*
G01X15701Y11963D01*
G01X17275Y11963D01*
G01X17275Y10388D01*
G01X16488Y10388D02*
G01X16488Y11963D01*
G54D23*
G01X1717Y5357D02*
G01X4040Y5357D01*
G01X4040Y7640D01*
G01X1717Y7640D01*
G01X1717Y5357D01*
G01X1717Y1857D02*
G01X4040Y1857D01*
G01X4040Y4140D01*
G01X1717Y4140D01*
G01X1717Y1857D01*
G01X6669Y2740D02*
G01X8228Y2740D01*
G01X7700Y9050D02*
G01X7700Y13150D01*
G01X1450Y13150D02*
G01X1450Y9050D01*
G01X7700Y13150D02*
G01X2800Y13150D01*
G01X2800Y13150D02*
G01X2800Y12800D01*
G01X2800Y12800D02*
G01X2200Y12800D01*
G01X2200Y12800D02*
G01X2200Y13150D01*
G01X2200Y13150D02*
G01X1450Y13150D01*
G01X7700Y9050D02*
G01X2800Y9050D01*
G01X2800Y9050D02*
G01X2800Y9400D01*
G01X2800Y9400D02*
G01X2200Y9400D01*
G01X2200Y9400D02*
G01X2200Y9050D01*
G01X2200Y9050D02*
G01X1450Y9050D01*
G01X7450Y9300D02*
G01X7450Y12900D01*
G01X4200Y12900D02*
G01X7450Y12900D01*
G01X4200Y12900D02*
G01X4200Y9300D01*
G01X7450Y9300D02*
G01X4200Y9300D01*
G54D25*
G01X1400Y13400D02*
G01X1400Y14390D01*
G01X3400Y14390D01*
G01X3400Y13400D01*
G01X1400Y13400D01*
G01X12850Y14200D02*
G01X12100Y14200D01*
G01X12100Y13200D01*
G01X18100Y13200D01*
G01X18100Y14200D01*
G54D26*
G01X18100Y14200D02*
G01X12850Y14200D01*
G54D25*
G01X10200Y3500D02*
G01X9200Y3500D01*
G01X9200Y4500D01*
G01X10200Y4500D01*
G01X10200Y3750D01*
G54D26*
G01X10200Y3500D02*
G01X10200Y3750D01*
G54D23*
G01X19880Y6050D02*
G01X20919Y6050D01*
G01X20919Y5550D01*
G01X19880Y5550D01*
G01X19880Y6050D01*
G01X20350Y5950D02*
G01X20350Y5650D01*
G01X20400Y5730D01*
G01X20450Y5800D01*
G01X20400Y5869D01*
G01X20350Y5950D01*
G01X20380Y5900D02*
G01X20380Y5700D01*
G01X20400Y5869D02*
G01X20400Y5730D01*
G01X19980Y3350D02*
G01X21019Y3350D01*
G01X21019Y2850D01*
G01X19980Y2850D01*
G01X19980Y3350D01*
G01X20450Y3250D02*
G01X20450Y2950D01*
G01X20500Y3030D01*
G01X20550Y3100D01*
G01X20500Y3169D01*
G01X20450Y3250D01*
G01X20480Y3200D02*
G01X20480Y3000D01*
G01X20500Y3169D02*
G01X20500Y3030D01*
G01X18680Y1950D02*
G01X19719Y1950D01*
G01X19719Y1450D01*
G01X18680Y1450D01*
G01X18680Y1950D01*
G01X19150Y1850D02*
G01X19150Y1550D01*
G01X19200Y1630D01*
G01X19250Y1700D01*
G01X19200Y1769D01*
G01X19150Y1850D01*
G01X19180Y1800D02*
G01X19180Y1600D01*
G01X19200Y1769D02*
G01X19200Y1630D01*
G54D27*
G01X14200Y13000D02*
G01X14200Y12571D01*
G01X14200Y13000D02*
G01X14465Y13000D01*
G01X14200Y12796D02*
G01X14364Y12796D01*
G01X14200Y12571D02*
G01X14465Y12571D01*
G01X14886Y12939D02*
G01X14846Y12980D01*
G01X14785Y13000D01*
G01X14702Y13000D01*
G01X14642Y12980D01*
G01X14601Y12939D01*
G01X14601Y12898D01*
G01X14621Y12857D01*
G01X14642Y12837D01*
G01X14682Y12816D01*
G01X14805Y12775D01*
G01X14846Y12755D01*
G01X14867Y12734D01*
G01X14886Y12694D01*
G01X14886Y12632D01*
G01X14846Y12591D01*
G01X14785Y12571D01*
G01X14702Y12571D01*
G01X14642Y12591D01*
G01X14601Y12632D01*
G01X15022Y13000D02*
G01X15022Y12571D01*
G01X15022Y13000D02*
G01X15206Y13000D01*
G01X15268Y12980D01*
G01X15288Y12959D01*
G01X15309Y12919D01*
G01X15309Y12857D01*
G01X15288Y12816D01*
G01X15268Y12796D01*
G01X15206Y12775D01*
G01X15022Y12775D01*
G01X12798Y9365D02*
G01X12798Y8983D01*
G01X12798Y9365D02*
G01X13034Y9365D01*
G01X12798Y9183D02*
G01X12943Y9183D01*
G01X12798Y8983D02*
G01X13034Y8983D01*
G01X13409Y9311D02*
G01X13373Y9347D01*
G01X13318Y9365D01*
G01X13245Y9365D01*
G01X13191Y9347D01*
G01X13154Y9311D01*
G01X13154Y9274D01*
G01X13173Y9238D01*
G01X13191Y9220D01*
G01X13227Y9202D01*
G01X13336Y9165D01*
G01X13373Y9147D01*
G01X13391Y9129D01*
G01X13409Y9092D01*
G01X13409Y9038D01*
G01X13373Y9002D01*
G01X13318Y8983D01*
G01X13245Y8983D01*
G01X13191Y9002D01*
G01X13154Y9038D01*
G01X13529Y9365D02*
G01X13529Y8983D01*
G01X13529Y9365D02*
G01X13693Y9365D01*
G01X13747Y9347D01*
G01X13765Y9329D01*
G01X13783Y9292D01*
G01X13783Y9238D01*
G01X13765Y9202D01*
G01X13747Y9183D01*
G01X13693Y9165D01*
G01X13529Y9165D01*
G01X14183Y9365D02*
G01X14274Y8983D01*
G01X14365Y9365D02*
G01X14274Y8983D01*
G01X14365Y9365D02*
G01X14456Y8983D01*
G01X14547Y9365D02*
G01X14456Y8983D01*
G01X14667Y9365D02*
G01X14667Y8983D01*
G01X14667Y9365D02*
G01X14831Y9365D01*
G01X14885Y9347D01*
G01X14903Y9329D01*
G01X14922Y9292D01*
G01X14922Y9256D01*
G01X14903Y9220D01*
G01X14885Y9202D01*
G01X14831Y9183D01*
G01X14667Y9183D01*
G01X14794Y9183D02*
G01X14922Y8983D01*
G01X15151Y9365D02*
G01X15114Y9347D01*
G01X15078Y9311D01*
G01X15060Y9274D01*
G01X15042Y9220D01*
G01X15042Y9129D01*
G01X15060Y9074D01*
G01X15078Y9038D01*
G01X15114Y9002D01*
G01X15151Y8983D01*
G01X15223Y8983D01*
G01X15260Y9002D01*
G01X15296Y9038D01*
G01X15314Y9074D01*
G01X15333Y9129D01*
G01X15333Y9220D01*
G01X15314Y9274D01*
G01X15296Y9311D01*
G01X15260Y9347D01*
G01X15223Y9365D01*
G01X15151Y9365D01*
G01X15562Y9365D02*
G01X15525Y9347D01*
G01X15489Y9311D01*
G01X15471Y9274D01*
G01X15453Y9220D01*
G01X15453Y9129D01*
G01X15471Y9074D01*
G01X15489Y9038D01*
G01X15525Y9002D01*
G01X15562Y8983D01*
G01X15634Y8983D01*
G01X15671Y9002D01*
G01X15707Y9038D01*
G01X15725Y9074D01*
G01X15743Y9129D01*
G01X15743Y9220D01*
G01X15725Y9274D01*
G01X15707Y9311D01*
G01X15671Y9347D01*
G01X15634Y9365D01*
G01X15562Y9365D01*
G01X15863Y9365D02*
G01X15863Y8983D01*
G01X15863Y9365D02*
G01X16009Y8983D01*
G01X16154Y9365D02*
G01X16009Y8983D01*
G01X16154Y9365D02*
G01X16154Y8983D01*
G01X16591Y9365D02*
G01X16791Y9365D01*
G01X16682Y9220D01*
G01X16736Y9220D01*
G01X16773Y9202D01*
G01X16791Y9183D01*
G01X16809Y9129D01*
G01X16809Y9092D01*
G01X16791Y9038D01*
G01X16754Y9002D01*
G01X16700Y8983D01*
G01X16645Y8983D01*
G01X16591Y9002D01*
G01X16573Y9020D01*
G01X16554Y9056D01*
G01X16947Y9274D02*
G01X16947Y9292D01*
G01X16965Y9329D01*
G01X16983Y9347D01*
G01X17020Y9365D01*
G01X17093Y9365D01*
G01X17129Y9347D01*
G01X17147Y9329D01*
G01X17165Y9292D01*
G01X17165Y9256D01*
G01X17147Y9220D01*
G01X17111Y9165D01*
G01X16929Y8983D01*
G01X17183Y8983D01*
G01X4300Y5700D02*
G01X4728Y5700D01*
G01X4300Y5986D02*
G01X4586Y5700D01*
G01X4484Y5801D02*
G01X4728Y5986D01*
G01X4300Y6121D02*
G01X4728Y6121D01*
G01X4300Y6121D02*
G01X4300Y6386D01*
G01X4503Y6121D02*
G01X4503Y6284D01*
G01X4728Y6121D02*
G01X4728Y6386D01*
G01X4300Y6521D02*
G01X4503Y6686D01*
G01X4728Y6686D01*
G01X4300Y6850D02*
G01X4503Y6686D01*
G01X4380Y6984D02*
G01X4361Y7025D01*
G01X4300Y7086D01*
G01X4728Y7086D01*
G01X4400Y2300D02*
G01X4828Y2300D01*
G01X4400Y2586D02*
G01X4686Y2300D01*
G01X4584Y2401D02*
G01X4828Y2586D01*
G01X4400Y2721D02*
G01X4828Y2721D01*
G01X4400Y2721D02*
G01X4400Y2986D01*
G01X4603Y2721D02*
G01X4603Y2884D01*
G01X4828Y2721D02*
G01X4828Y2986D01*
G01X4400Y3121D02*
G01X4603Y3286D01*
G01X4828Y3286D01*
G01X4400Y3450D02*
G01X4603Y3286D01*
G01X4501Y3605D02*
G01X4480Y3605D01*
G01X4440Y3625D01*
G01X4419Y3646D01*
G01X4400Y3686D01*
G01X4400Y3769D01*
G01X4419Y3809D01*
G01X4440Y3830D01*
G01X4480Y3850D01*
G01X4521Y3850D01*
G01X4563Y3830D01*
G01X4625Y3788D01*
G01X4828Y3584D01*
G01X4828Y3871D01*
G01X4043Y999D02*
G01X4043Y570D01*
G01X3900Y999D02*
G01X4186Y999D01*
G01X4321Y734D02*
G01X4567Y734D01*
G01X4567Y774D01*
G01X4546Y815D01*
G01X4526Y836D01*
G01X4485Y856D01*
G01X4423Y856D01*
G01X4383Y836D01*
G01X4342Y795D01*
G01X4321Y734D01*
G01X4321Y693D01*
G01X4342Y631D01*
G01X4383Y590D01*
G01X4423Y570D01*
G01X4485Y570D01*
G01X4526Y590D01*
G01X4567Y631D01*
G01X4702Y856D02*
G01X4702Y570D01*
G01X4702Y774D02*
G01X4763Y836D01*
G01X4804Y856D01*
G01X4865Y856D01*
G01X4906Y836D01*
G01X4927Y774D01*
G01X4927Y570D01*
G01X4927Y774D02*
G01X4988Y836D01*
G01X5029Y856D01*
G01X5090Y856D01*
G01X5131Y836D01*
G01X5152Y774D01*
G01X5152Y570D01*
G01X5287Y856D02*
G01X5287Y427D01*
G01X5287Y795D02*
G01X5328Y836D01*
G01X5368Y856D01*
G01X5430Y856D01*
G01X5471Y836D01*
G01X5512Y795D01*
G01X5532Y734D01*
G01X5532Y693D01*
G01X5512Y631D01*
G01X5471Y590D01*
G01X5430Y570D01*
G01X5368Y570D01*
G01X5328Y590D01*
G01X5287Y631D01*
G01X5667Y734D02*
G01X5913Y734D01*
G01X5913Y774D01*
G01X5892Y815D01*
G01X5872Y836D01*
G01X5831Y856D01*
G01X5769Y856D01*
G01X5728Y836D01*
G01X5688Y795D01*
G01X5667Y734D01*
G01X5667Y693D01*
G01X5688Y631D01*
G01X5728Y590D01*
G01X5769Y570D01*
G01X5831Y570D01*
G01X5872Y590D01*
G01X5913Y631D01*
G01X6048Y856D02*
G01X6048Y570D01*
G01X6048Y734D02*
G01X6068Y795D01*
G01X6109Y836D01*
G01X6150Y856D01*
G01X6211Y856D01*
G01X6592Y856D02*
G01X6592Y570D01*
G01X6592Y795D02*
G01X6551Y836D01*
G01X6510Y856D01*
G01X6448Y856D01*
G01X6408Y836D01*
G01X6367Y795D01*
G01X6346Y734D01*
G01X6346Y693D01*
G01X6367Y631D01*
G01X6408Y590D01*
G01X6448Y570D01*
G01X6510Y570D01*
G01X6551Y590D01*
G01X6592Y631D01*
G01X6788Y999D02*
G01X6788Y652D01*
G01X6808Y590D01*
G01X6849Y570D01*
G01X6890Y570D01*
G01X6727Y856D02*
G01X6870Y856D01*
G01X7025Y856D02*
G01X7025Y652D01*
G01X7046Y590D01*
G01X7087Y570D01*
G01X7148Y570D01*
G01X7189Y590D01*
G01X7250Y652D01*
G01X7250Y856D02*
G01X7250Y570D01*
G01X7385Y856D02*
G01X7385Y570D01*
G01X7385Y734D02*
G01X7406Y795D01*
G01X7447Y836D01*
G01X7488Y856D01*
G01X7549Y856D01*
G01X7684Y734D02*
G01X7929Y734D01*
G01X7929Y774D01*
G01X7909Y815D01*
G01X7888Y836D01*
G01X7848Y856D01*
G01X7786Y856D01*
G01X7745Y836D01*
G01X7704Y795D01*
G01X7684Y734D01*
G01X7684Y693D01*
G01X7704Y631D01*
G01X7745Y590D01*
G01X7786Y570D01*
G01X7848Y570D01*
G01X7888Y590D01*
G01X7929Y631D01*
G01X8064Y754D02*
G01X8433Y754D01*
G01X8854Y938D02*
G01X8813Y979D01*
G01X8752Y999D01*
G01X8670Y999D01*
G01X8608Y979D01*
G01X8568Y938D01*
G01X8568Y897D01*
G01X8588Y856D01*
G01X8608Y836D01*
G01X8649Y815D01*
G01X8772Y774D01*
G01X8813Y754D01*
G01X8833Y734D01*
G01X8854Y693D01*
G01X8854Y631D01*
G01X8813Y590D01*
G01X8752Y570D01*
G01X8670Y570D01*
G01X8608Y590D01*
G01X8568Y631D01*
G01X8989Y734D02*
G01X9234Y734D01*
G01X9234Y774D01*
G01X9214Y815D01*
G01X9193Y836D01*
G01X9153Y856D01*
G01X9091Y856D01*
G01X9050Y836D01*
G01X9009Y795D01*
G01X8989Y734D01*
G01X8989Y693D01*
G01X9009Y631D01*
G01X9050Y590D01*
G01X9091Y570D01*
G01X9153Y570D01*
G01X9193Y590D01*
G01X9234Y631D01*
G01X9369Y856D02*
G01X9369Y570D01*
G01X9369Y774D02*
G01X9431Y836D01*
G01X9472Y856D01*
G01X9533Y856D01*
G01X9574Y836D01*
G01X9594Y774D01*
G01X9594Y570D01*
G01X9954Y795D02*
G01X9934Y836D01*
G01X9873Y856D01*
G01X9811Y856D01*
G01X9750Y836D01*
G01X9729Y795D01*
G01X9750Y754D01*
G01X9791Y734D01*
G01X9893Y713D01*
G01X9934Y693D01*
G01X9954Y652D01*
G01X9954Y631D01*
G01X9934Y590D01*
G01X9873Y570D01*
G01X9811Y570D01*
G01X9750Y590D01*
G01X9729Y631D01*
G01X10192Y856D02*
G01X10151Y836D01*
G01X10110Y795D01*
G01X10089Y734D01*
G01X10089Y693D01*
G01X10110Y631D01*
G01X10151Y590D01*
G01X10192Y570D01*
G01X10253Y570D01*
G01X10294Y590D01*
G01X10335Y631D01*
G01X10355Y693D01*
G01X10355Y734D01*
G01X10335Y795D01*
G01X10294Y836D01*
G01X10253Y856D01*
G01X10192Y856D01*
G01X10490Y856D02*
G01X10490Y570D01*
G01X10490Y734D02*
G01X10511Y795D01*
G01X10552Y836D01*
G01X10593Y856D01*
G01X10654Y856D01*
G01X599Y8137D02*
G01X1028Y8301D01*
G01X599Y8464D02*
G01X1028Y8301D01*
G01X742Y8702D02*
G01X762Y8661D01*
G01X803Y8620D01*
G01X864Y8599D01*
G01X905Y8599D01*
G01X967Y8620D01*
G01X1008Y8661D01*
G01X1028Y8702D01*
G01X1028Y8763D01*
G01X1008Y8804D01*
G01X967Y8845D01*
G01X905Y8865D01*
G01X864Y8865D01*
G01X803Y8845D01*
G01X762Y8804D01*
G01X742Y8763D01*
G01X742Y8702D01*
G01X599Y9000D02*
G01X1028Y9000D01*
G01X599Y9197D02*
G01X946Y9197D01*
G01X1008Y9217D01*
G01X1028Y9258D01*
G01X1028Y9299D01*
G01X742Y9135D02*
G01X742Y9278D01*
G01X742Y9679D02*
G01X1028Y9679D01*
G01X803Y9679D02*
G01X762Y9638D01*
G01X742Y9597D01*
G01X742Y9536D01*
G01X762Y9495D01*
G01X803Y9454D01*
G01X864Y9434D01*
G01X905Y9434D01*
G01X967Y9454D01*
G01X1008Y9495D01*
G01X1028Y9536D01*
G01X1028Y9597D01*
G01X1008Y9638D01*
G01X967Y9679D01*
G01X742Y10060D02*
G01X1069Y10060D01*
G01X1130Y10039D01*
G01X1151Y10019D01*
G01X1171Y9978D01*
G01X1171Y9917D01*
G01X1151Y9876D01*
G01X803Y10060D02*
G01X762Y10019D01*
G01X742Y9978D01*
G01X742Y9917D01*
G01X762Y9876D01*
G01X803Y9835D01*
G01X864Y9814D01*
G01X905Y9814D01*
G01X967Y9835D01*
G01X1008Y9876D01*
G01X1028Y9917D01*
G01X1028Y9978D01*
G01X1008Y10019D01*
G01X967Y10060D01*
G01X864Y10195D02*
G01X864Y10440D01*
G01X824Y10440D01*
G01X783Y10420D01*
G01X762Y10399D01*
G01X742Y10358D01*
G01X742Y10297D01*
G01X762Y10256D01*
G01X803Y10215D01*
G01X864Y10195D01*
G01X905Y10195D01*
G01X967Y10215D01*
G01X1008Y10256D01*
G01X1028Y10297D01*
G01X1028Y10358D01*
G01X1008Y10399D01*
G01X967Y10440D01*
G01X1171Y10575D02*
G01X1171Y10943D01*
G01X599Y11078D02*
G01X1028Y11078D01*
G01X599Y11078D02*
G01X599Y11262D01*
G01X619Y11324D01*
G01X639Y11344D01*
G01X680Y11365D01*
G01X721Y11365D01*
G01X762Y11344D01*
G01X783Y11324D01*
G01X803Y11262D01*
G01X803Y11078D01*
G01X803Y11222D02*
G01X1028Y11365D01*
G01X864Y11500D02*
G01X864Y11745D01*
G01X824Y11745D01*
G01X783Y11725D01*
G01X762Y11704D01*
G01X742Y11663D01*
G01X742Y11602D01*
G01X762Y11561D01*
G01X803Y11520D01*
G01X864Y11500D01*
G01X905Y11500D01*
G01X967Y11520D01*
G01X1008Y11561D01*
G01X1028Y11602D01*
G01X1028Y11663D01*
G01X1008Y11704D01*
G01X967Y11745D01*
G01X742Y12126D02*
G01X1069Y12126D01*
G01X1130Y12105D01*
G01X1151Y12085D01*
G01X1171Y12044D01*
G01X1171Y11982D01*
G01X1151Y11942D01*
G01X803Y12126D02*
G01X762Y12085D01*
G01X742Y12044D01*
G01X742Y11982D01*
G01X762Y11942D01*
G01X803Y11901D01*
G01X864Y11880D01*
G01X905Y11880D01*
G01X967Y11901D01*
G01X1008Y11942D01*
G01X1028Y11982D01*
G01X1028Y12044D01*
G01X1008Y12085D01*
G01X967Y12126D01*
G01X742Y12261D02*
G01X946Y12261D01*
G01X1008Y12281D01*
G01X1028Y12322D01*
G01X1028Y12383D01*
G01X1008Y12424D01*
G01X946Y12486D01*
G01X742Y12486D02*
G01X1028Y12486D01*
G01X599Y12621D02*
G01X1028Y12621D01*
G01X742Y13001D02*
G01X1028Y13001D01*
G01X803Y13001D02*
G01X762Y12960D01*
G01X742Y12919D01*
G01X742Y12858D01*
G01X762Y12817D01*
G01X803Y12776D01*
G01X864Y12756D01*
G01X905Y12756D01*
G01X967Y12776D01*
G01X1008Y12817D01*
G01X1028Y12858D01*
G01X1028Y12919D01*
G01X1008Y12960D01*
G01X967Y13001D01*
G01X599Y13197D02*
G01X946Y13197D01*
G01X1008Y13218D01*
G01X1028Y13259D01*
G01X1028Y13300D01*
G01X742Y13136D02*
G01X742Y13279D01*
G01X742Y13537D02*
G01X762Y13496D01*
G01X803Y13455D01*
G01X864Y13435D01*
G01X905Y13435D01*
G01X967Y13455D01*
G01X1008Y13496D01*
G01X1028Y13537D01*
G01X1028Y13598D01*
G01X1008Y13639D01*
G01X967Y13680D01*
G01X905Y13701D01*
G01X864Y13701D01*
G01X803Y13680D01*
G01X762Y13639D01*
G01X742Y13598D01*
G01X742Y13537D01*
G01X742Y13836D02*
G01X1028Y13836D01*
G01X864Y13836D02*
G01X803Y13856D01*
G01X762Y13897D01*
G01X742Y13938D01*
G01X742Y13999D01*
G54D28*
G01X3991Y12826D02*
G01X3800Y12900D01*
G01X3991Y12826D02*
G01X3800Y12755D01*
G01X3864Y12873D02*
G01X3864Y12782D01*
G01X3955Y12694D02*
G01X3964Y12676D01*
G01X3991Y12648D01*
G01X3800Y12648D01*
G01X3991Y12461D02*
G01X3800Y12553D01*
G01X3991Y12588D02*
G01X3991Y12461D01*
G01X3837Y12384D02*
G01X3827Y12392D01*
G01X3837Y12401D01*
G01X3846Y12392D01*
G01X3837Y12384D01*
G01X3818Y12384D01*
G01X3800Y12401D01*
G01X3991Y12215D02*
G01X3991Y12305D01*
G01X3909Y12315D01*
G01X3918Y12305D01*
G01X3927Y12278D01*
G01X3927Y12251D01*
G01X3918Y12223D01*
G01X3900Y12205D01*
G01X3873Y12196D01*
G01X3855Y12196D01*
G01X3827Y12205D01*
G01X3809Y12223D01*
G01X3800Y12251D01*
G01X3800Y12278D01*
G01X3809Y12305D01*
G01X3818Y12315D01*
G01X3837Y12323D01*
G01X3927Y12136D02*
G01X3800Y12136D01*
G01X3891Y12136D02*
G01X3918Y12109D01*
G01X3927Y12090D01*
G01X3927Y12063D01*
G01X3918Y12044D01*
G01X3891Y12036D01*
G01X3800Y12036D01*
G01X3891Y12036D02*
G01X3918Y12009D01*
G01X3927Y11990D01*
G01X3927Y11963D01*
G01X3918Y11944D01*
G01X3891Y11936D01*
G01X3800Y11936D01*
G01X3927Y11876D02*
G01X3800Y11876D01*
G01X3891Y11876D02*
G01X3918Y11848D01*
G01X3927Y11830D01*
G01X3927Y11803D01*
G01X3918Y11784D01*
G01X3891Y11776D01*
G01X3800Y11776D01*
G01X3891Y11776D02*
G01X3918Y11748D01*
G01X3927Y11730D01*
G01X3927Y11703D01*
G01X3918Y11684D01*
G01X3891Y11676D01*
G01X3800Y11676D01*
G54D27*
G01X944Y15099D02*
G01X740Y15099D01*
G01X719Y14914D01*
G01X740Y14935D01*
G01X801Y14955D01*
G01X863Y14955D01*
G01X925Y14935D01*
G01X965Y14894D01*
G01X986Y14833D01*
G01X986Y14792D01*
G01X965Y14730D01*
G01X925Y14689D01*
G01X863Y14669D01*
G01X801Y14669D01*
G01X740Y14689D01*
G01X719Y14710D01*
G01X700Y14751D01*
G01X1121Y15099D02*
G01X1284Y14669D01*
G01X1448Y15099D02*
G01X1284Y14669D01*
G01X1584Y14853D02*
G01X1951Y14853D01*
G01X2394Y14996D02*
G01X2373Y15037D01*
G01X2332Y15078D01*
G01X2290Y15099D01*
G01X2209Y15099D01*
G01X2169Y15078D01*
G01X2128Y15037D01*
G01X2107Y14996D01*
G01X2086Y14935D01*
G01X2086Y14833D01*
G01X2107Y14771D01*
G01X2128Y14730D01*
G01X2169Y14689D01*
G01X2209Y14669D01*
G01X2290Y14669D01*
G01X2332Y14689D01*
G01X2373Y14730D01*
G01X2394Y14771D01*
G01X2394Y14833D01*
G01X2290Y14833D02*
G01X2394Y14833D01*
G01X2528Y14955D02*
G01X2528Y14669D01*
G01X2528Y14833D02*
G01X2548Y14894D01*
G01X2590Y14935D01*
G01X2630Y14955D01*
G01X2692Y14955D01*
G01X2930Y14955D02*
G01X2888Y14935D01*
G01X2848Y14894D01*
G01X2826Y14833D01*
G01X2826Y14792D01*
G01X2848Y14730D01*
G01X2888Y14689D01*
G01X2930Y14669D01*
G01X2990Y14669D01*
G01X3032Y14689D01*
G01X3073Y14730D01*
G01X3092Y14792D01*
G01X3092Y14833D01*
G01X3073Y14894D01*
G01X3032Y14935D01*
G01X2990Y14955D01*
G01X2930Y14955D01*
G01X3228Y14955D02*
G01X3228Y14751D01*
G01X3248Y14689D01*
G01X3290Y14669D01*
G01X3351Y14669D01*
G01X3392Y14689D01*
G01X3453Y14751D01*
G01X3453Y14955D02*
G01X3453Y14669D01*
G01X3588Y14955D02*
G01X3588Y14669D01*
G01X3588Y14874D02*
G01X3650Y14935D01*
G01X3690Y14955D01*
G01X3751Y14955D01*
G01X3792Y14935D01*
G01X3813Y14874D01*
G01X3813Y14669D01*
G01X4194Y15099D02*
G01X4194Y14669D01*
G01X4194Y14894D02*
G01X4153Y14935D01*
G01X4111Y14955D01*
G01X4050Y14955D01*
G01X4009Y14935D01*
G01X3969Y14894D01*
G01X3948Y14833D01*
G01X3948Y14792D01*
G01X3969Y14730D01*
G01X4009Y14689D01*
G01X4050Y14669D01*
G01X4111Y14669D01*
G01X4153Y14689D01*
G01X4194Y14730D01*
G01X6100Y4899D02*
G01X6100Y4469D01*
G01X6100Y4899D02*
G01X6284Y4899D01*
G01X6344Y4878D01*
G01X6365Y4858D01*
G01X6385Y4817D01*
G01X6385Y4776D01*
G01X6365Y4735D01*
G01X6344Y4714D01*
G01X6284Y4694D01*
G01X6100Y4694D01*
G01X6243Y4694D02*
G01X6385Y4469D01*
G01X6521Y4817D02*
G01X6561Y4837D01*
G01X6623Y4899D01*
G01X6623Y4469D01*
G01X6759Y4653D02*
G01X7127Y4653D01*
G01X7465Y4899D02*
G01X7261Y4612D01*
G01X7568Y4612D01*
G01X7465Y4899D02*
G01X7465Y4469D01*
G01X7723Y4571D02*
G01X7703Y4551D01*
G01X7723Y4530D01*
G01X7744Y4551D01*
G01X7723Y4571D01*
G01X8165Y4899D02*
G01X7960Y4469D01*
G01X7880Y4899D02*
G01X8165Y4899D01*
G01X8301Y4899D02*
G01X8301Y4469D01*
G01X8586Y4899D02*
G01X8301Y4612D01*
G01X8402Y4714D02*
G01X8586Y4469D01*
G01X9300Y13699D02*
G01X9300Y13269D01*
G01X9300Y13699D02*
G01X9484Y13699D01*
G01X9544Y13678D01*
G01X9565Y13658D01*
G01X9585Y13617D01*
G01X9585Y13576D01*
G01X9565Y13535D01*
G01X9544Y13514D01*
G01X9484Y13494D01*
G01X9300Y13494D01*
G01X9443Y13494D02*
G01X9585Y13269D01*
G01X9742Y13596D02*
G01X9742Y13617D01*
G01X9761Y13658D01*
G01X9782Y13678D01*
G01X9823Y13699D01*
G01X9905Y13699D01*
G01X9946Y13678D01*
G01X9967Y13658D01*
G01X9986Y13617D01*
G01X9986Y13576D01*
G01X9967Y13535D01*
G01X9926Y13474D01*
G01X9721Y13269D01*
G01X10007Y13269D01*
G01X10143Y13453D02*
G01X10510Y13453D01*
G01X10850Y13699D02*
G01X10646Y13412D01*
G01X10952Y13412D01*
G01X10850Y13699D02*
G01X10850Y13269D01*
G01X11107Y13371D02*
G01X11088Y13351D01*
G01X11107Y13330D01*
G01X11128Y13351D01*
G01X11107Y13371D01*
G01X11550Y13699D02*
G01X11344Y13269D01*
G01X11264Y13699D02*
G01X11550Y13699D01*
G01X11685Y13699D02*
G01X11685Y13269D01*
G01X11971Y13699D02*
G01X11685Y13412D01*
G01X11786Y13514D02*
G01X11971Y13269D01*
G01X14900Y14800D02*
G01X14900Y14371D01*
G01X14900Y14800D02*
G01X15084Y14800D01*
G01X15144Y14780D01*
G01X15165Y14760D01*
G01X15185Y14719D01*
G01X15185Y14657D01*
G01X15165Y14616D01*
G01X15144Y14596D01*
G01X15084Y14575D01*
G01X14900Y14575D01*
G01X15321Y14719D02*
G01X15361Y14739D01*
G01X15423Y14800D01*
G01X15423Y14371D01*
G01X9300Y3299D02*
G01X9300Y2870D01*
G01X9300Y3299D02*
G01X9484Y3299D01*
G01X9544Y3279D01*
G01X9565Y3259D01*
G01X9585Y3218D01*
G01X9585Y3156D01*
G01X9565Y3115D01*
G01X9544Y3095D01*
G01X9484Y3074D01*
G01X9300Y3074D01*
G01X9742Y3197D02*
G01X9742Y3218D01*
G01X9761Y3259D01*
G01X9782Y3279D01*
G01X9823Y3299D01*
G01X9905Y3299D01*
G01X9946Y3279D01*
G01X9967Y3259D01*
G01X9986Y3218D01*
G01X9986Y3177D01*
G01X9967Y3136D01*
G01X9926Y3074D01*
G01X9721Y2870D01*
G01X10007Y2870D01*
G01X19100Y6900D02*
G01X19100Y6471D01*
G01X19100Y6900D02*
G01X19284Y6900D01*
G01X19344Y6880D01*
G01X19365Y6860D01*
G01X19385Y6819D01*
G01X19385Y6778D01*
G01X19365Y6737D01*
G01X19344Y6716D01*
G01X19284Y6696D01*
G01X19100Y6696D01*
G01X19243Y6696D02*
G01X19385Y6471D01*
G01X19521Y6655D02*
G01X19889Y6655D01*
G01X20025Y6900D02*
G01X20025Y6471D01*
G01X20025Y6471D02*
G01X20269Y6471D01*
G01X20405Y6900D02*
G01X20405Y6471D01*
G01X20405Y6900D02*
G01X20671Y6900D01*
G01X20405Y6696D02*
G01X20568Y6696D01*
G01X20405Y6471D02*
G01X20671Y6471D01*
G01X20806Y6900D02*
G01X20806Y6471D01*
G01X20806Y6900D02*
G01X20948Y6900D01*
G01X21010Y6880D01*
G01X21051Y6839D01*
G01X21072Y6798D01*
G01X21092Y6737D01*
G01X21092Y6635D01*
G01X21072Y6573D01*
G01X21051Y6532D01*
G01X21010Y6491D01*
G01X20948Y6471D01*
G01X20806Y6471D01*
G01X19200Y2599D02*
G01X19200Y2169D01*
G01X19200Y2599D02*
G01X19384Y2599D01*
G01X19444Y2578D01*
G01X19465Y2558D01*
G01X19485Y2517D01*
G01X19485Y2476D01*
G01X19465Y2435D01*
G01X19444Y2414D01*
G01X19384Y2394D01*
G01X19200Y2394D02*
G01X19384Y2394D01*
G01X19444Y2374D01*
G01X19465Y2353D01*
G01X19485Y2312D01*
G01X19485Y2251D01*
G01X19465Y2210D01*
G01X19444Y2189D01*
G01X19384Y2169D01*
G01X19200Y2169D01*
G01X19621Y2353D02*
G01X19989Y2353D01*
G01X20125Y2599D02*
G01X20125Y2169D01*
G01X20125Y2169D02*
G01X20369Y2169D01*
G01X20505Y2599D02*
G01X20505Y2169D01*
G01X20505Y2599D02*
G01X20771Y2599D01*
G01X20505Y2394D02*
G01X20668Y2394D01*
G01X20505Y2169D02*
G01X20771Y2169D01*
G01X20906Y2599D02*
G01X20906Y2169D01*
G01X20906Y2599D02*
G01X21048Y2599D01*
G01X21110Y2578D01*
G01X21151Y2537D01*
G01X21172Y2496D01*
G01X21192Y2435D01*
G01X21192Y2333D01*
G01X21172Y2271D01*
G01X21151Y2230D01*
G01X21110Y2189D01*
G01X21048Y2169D01*
G01X20906Y2169D01*
G01X18306Y796D02*
G01X18285Y837D01*
G01X18244Y878D01*
G01X18205Y899D01*
G01X18122Y899D01*
G01X18081Y878D01*
G01X18040Y837D01*
G01X18019Y796D01*
G01X18000Y735D01*
G01X18000Y633D01*
G01X18019Y571D01*
G01X18040Y530D01*
G01X18081Y489D01*
G01X18122Y469D01*
G01X18205Y469D01*
G01X18244Y489D01*
G01X18285Y530D01*
G01X18306Y571D01*
G01X18306Y633D01*
G01X18205Y633D02*
G01X18306Y633D01*
G01X18442Y653D02*
G01X18810Y653D01*
G01X18944Y899D02*
G01X18944Y469D01*
G01X18944Y469D02*
G01X19189Y469D01*
G01X19325Y899D02*
G01X19325Y469D01*
G01X19325Y899D02*
G01X19590Y899D01*
G01X19325Y694D02*
G01X19489Y694D01*
G01X19325Y469D02*
G01X19590Y469D01*
G01X19726Y899D02*
G01X19726Y469D01*
G01X19726Y899D02*
G01X19869Y899D01*
G01X19931Y878D01*
G01X19972Y837D01*
G01X19992Y796D01*
G01X20013Y735D01*
G01X20013Y633D01*
G01X19992Y571D01*
G01X19972Y530D01*
G01X19931Y489D01*
G01X19869Y469D01*
G01X19726Y469D01*
G54D23*
G75*
G01X6670Y2741D02*
G3X8230Y2741I780J-590D01*
G01*
G75*
G01X3176Y6482D02*
G03X3176Y6482I-295J0D01*
G01*
G75*
G01X3570Y6482D02*
G03X3570Y6482I-689J0D01*
G01*
G75*
G01X3176Y2982D02*
G03X3176Y2982I-295J0D01*
G01*
G75*
G01X3570Y2982D02*
G03X3570Y2982I-689J0D01*
G01*
G75*
G01X3510Y11100D02*
G03X3510Y11100I-710J0D01*
G01*
M00*
M02*
