G04 ---------------------------- Layer name :TOP PASTER LAYER*
G04 EasyEDA v5.8.20, Mon, 11 Feb 2019 17:59:45 GMT*
G04 65bf9d44a92e4a059924f4159289745f*
G04 Gerber Generator version 0.2*
G04 Scale: 100 percent, Rotated: No, Reflected: No *
G04 Dimensions in inches *
G04 leading zeros omitted , absolute positions ,2 integer and 4 decimal *
%FSLAX24Y24*%
%MOIN*%
G90*
G70D02*

%ADD13R,0.086614X0.039370*%
%ADD14R,0.039370X0.086614*%
%ADD15R,0.157480X0.157480*%
%ADD16R,0.043300X0.039400*%
%ADD17R,0.030000X0.035000*%

%LPD*%
G54D13*
G01X18442Y9421D03*
G01X18440Y8919D03*
G01X18439Y8419D03*
G01X18439Y7919D03*
G01X18439Y7419D03*
G01X18439Y6919D03*
G01X18439Y6419D03*
G01X18439Y5921D03*
G01X18439Y5421D03*
G01X18439Y4921D03*
G01X18439Y4421D03*
G01X18439Y3919D03*
G01X18439Y3419D03*
G01X18439Y2919D03*
G01X11360Y9422D03*
G01X11360Y8919D03*
G01X11359Y8421D03*
G01X11359Y7921D03*
G01X11359Y7421D03*
G01X11359Y6921D03*
G01X11359Y6421D03*
G01X11357Y5921D03*
G01X11357Y5421D03*
G01X11357Y4921D03*
G01X11357Y4421D03*
G01X11359Y3921D03*
G01X11359Y3421D03*
G01X11359Y2921D03*
G54D14*
G01X12668Y2290D03*
G01X13168Y2290D03*
G01X13668Y2290D03*
G01X14168Y2288D03*
G01X14668Y2288D03*
G01X15168Y2288D03*
G01X15668Y2288D03*
G01X16168Y2290D03*
G01X16668Y2290D03*
G01X17168Y2290D03*
G54D15*
G01X14899Y6495D03*
G54D16*
G01X7070Y4000D03*
G01X7730Y4000D03*
G01X11530Y12800D03*
G01X10870Y12800D03*
G54D17*
G01X20100Y5800D03*
G01X20700Y5800D03*
G01X20200Y3100D03*
G01X20800Y3100D03*
G01X18900Y1700D03*
G01X19500Y1700D03*
M00*
M02*
