G04 ---------------------------- Layer name :TOP LAYER*
G04 EasyEDA v5.8.20, Mon, 11 Feb 2019 17:59:45 GMT*
G04 65bf9d44a92e4a059924f4159289745f*
G04 Gerber Generator version 0.2*
G04 Scale: 100 percent, Rotated: No, Reflected: No *
G04 Dimensions in inches *
G04 leading zeros omitted , absolute positions ,2 integer and 4 decimal *
%FSLAX24Y24*%
%MOIN*%
G90*
G70D02*

%ADD11C,0.019000*%
%ADD12C,0.020000*%
%ADD13R,0.086614X0.039370*%
%ADD14R,0.039370X0.086614*%
%ADD15R,0.157480X0.157480*%
%ADD16R,0.043300X0.039400*%
%ADD17R,0.030000X0.035000*%
%ADD18C,0.078740*%
%ADD19R,0.107500X0.059700*%
%ADD20R,0.072000X0.072000*%
%ADD21C,0.072000*%
%ADD22C,0.035000*%

%LPD*%
G54D11*
G01X2640Y2348D02*
G01X1011Y3976D01*
G01X1011Y14207D01*
G01X1553Y14750D01*
G01X16550Y14750D01*
G01X17600Y13700D01*
G01X2013Y1719D02*
G01X2640Y2348D01*
G01X2640Y2348D02*
G01X4301Y2348D01*
G01X5436Y1213D01*
G01X17035Y1213D01*
G01X17815Y1992D01*
G01X17815Y2919D01*
G01X18439Y2919D02*
G01X17815Y2919D01*
G01X17818Y9421D02*
G01X17818Y7588D01*
G01X13150Y2919D01*
G01X12285Y2919D01*
G01X11514Y2150D01*
G01X7950Y2150D01*
G01X18442Y9421D02*
G01X17818Y9421D01*
G01X7950Y2150D02*
G01X7950Y1878D01*
G01X7596Y1525D01*
G01X6539Y1525D01*
G01X3786Y4278D01*
G01X2013Y7778D02*
G01X1307Y8484D01*
G01X1307Y14115D01*
G01X1667Y14473D01*
G01X2326Y14473D01*
G01X2900Y13900D01*
G01X3176Y7171D02*
G01X2621Y7171D01*
G01X2013Y7778D01*
G01X3176Y7171D02*
G01X7868Y7171D01*
G01X10428Y9730D01*
G01X3786Y4278D02*
G01X3176Y4888D01*
G01X3176Y7171D01*
G01X10428Y9730D02*
G01X10736Y9421D01*
G01X10428Y10098D02*
G01X10428Y9730D01*
G01X9701Y10098D02*
G01X10428Y10098D01*
G01X11360Y9421D02*
G01X10736Y9421D01*
G01X12600Y13700D02*
G01X12048Y13700D01*
G01X2900Y13900D02*
G01X11848Y13900D01*
G01X12048Y13700D01*
G01X11531Y12800D02*
G01X11531Y11813D01*
G01X10342Y10625D01*
G01X6631Y10625D01*
G01X3786Y7778D01*
G01X20100Y5800D02*
G01X19759Y5800D01*
G01X19759Y5800D02*
G01X19380Y5421D01*
G01X18439Y5421D01*
G01X18439Y4921D02*
G01X19063Y4921D01*
G01X20200Y3100D02*
G01X20200Y3784D01*
G01X19063Y4921D01*
G01X18439Y4421D02*
G01X19063Y4421D01*
G01X18900Y1700D02*
G01X18900Y2065D01*
G01X18900Y2065D02*
G01X19063Y2228D01*
G01X19063Y4421D01*
G01X11984Y13163D02*
G01X11960Y13188D01*
G01X10871Y13188D01*
G01X13600Y13700D02*
G01X13064Y13163D01*
G01X11984Y13163D01*
G01X11984Y8919D02*
G01X11984Y13163D01*
G01X11360Y8919D02*
G01X11984Y8919D01*
G01X10871Y12800D02*
G01X10871Y13188D01*
G01X10428Y11098D02*
G01X10871Y11540D01*
G01X10871Y12800D01*
G01X9701Y11098D02*
G01X10428Y11098D01*
G01X3786Y5219D02*
G01X6893Y5219D01*
G01X10093Y8421D01*
G01X11359Y8421D01*
G01X11359Y8421D02*
G01X11982Y8421D01*
G01X14600Y13700D02*
G01X14600Y11038D01*
G01X11982Y8421D01*
G01X7071Y4000D02*
G01X7071Y4388D01*
G01X7071Y4388D02*
G01X8605Y5921D01*
G01X11357Y5921D01*
G01X7071Y3805D02*
G01X7071Y4000D01*
G01X7071Y3805D02*
G01X7071Y3611D01*
G01X7071Y3611D02*
G01X6950Y3492D01*
G01X6950Y2150D01*
G01X9700Y4000D02*
G01X9700Y4551D01*
G01X9700Y4551D02*
G01X10571Y5421D01*
G01X11357Y5421D01*
G01X7731Y2921D02*
G01X11359Y2921D01*
G01X7450Y2150D02*
G01X7450Y2640D01*
G01X7731Y2921D01*
G01X7731Y3611D02*
G01X7731Y2921D01*
G01X7731Y4000D02*
G01X7731Y3611D01*
G01X19669Y1700D02*
G01X18907Y938D01*
G01X4567Y938D01*
G01X3786Y1719D01*
G01X19669Y1700D02*
G01X19840Y1700D01*
G01X19500Y1700D02*
G01X19669Y1700D01*
G01X20700Y3100D02*
G01X20800Y3100D01*
G01X19840Y1700D02*
G01X20700Y2559D01*
G01X20700Y3100D01*
G01X20700Y3100D02*
G01X20700Y5434D01*
G01X20700Y5800D02*
G01X20700Y5434D01*
G01X1900Y13900D02*
G01X3701Y12098D01*
G01X9701Y12098D01*
G01X16600Y13700D02*
G01X19335Y10965D01*
G01X19335Y7690D01*
G01X19064Y7419D01*
G01X18439Y7419D02*
G01X19064Y7419D01*
G01X18439Y7919D02*
G01X19064Y7919D01*
G01X15600Y13700D02*
G01X19064Y10236D01*
G01X19064Y7919D01*
G54D12*
G01X2882Y16426D02*
G01X2836Y16517D01*
G01X2744Y16608D01*
G01X2655Y16653D01*
G01X2473Y16653D01*
G01X2382Y16608D01*
G01X2290Y16517D01*
G01X2244Y16426D01*
G01X2200Y16290D01*
G01X2200Y16063D01*
G01X2244Y15926D01*
G01X2290Y15835D01*
G01X2382Y15744D01*
G01X2473Y15699D01*
G01X2655Y15699D01*
G01X2744Y15744D01*
G01X2836Y15835D01*
G01X2882Y15926D01*
G01X3182Y16653D02*
G01X3182Y15699D01*
G01X3182Y16153D02*
G01X3317Y16290D01*
G01X3409Y16335D01*
G01X3544Y16335D01*
G01X3636Y16290D01*
G01X3682Y16153D01*
G01X3682Y15699D01*
G01X3982Y16335D02*
G01X3982Y15699D01*
G01X3982Y16063D02*
G01X4026Y16199D01*
G01X4117Y16290D01*
G01X4209Y16335D01*
G01X4344Y16335D01*
G01X4644Y16653D02*
G01X4690Y16608D01*
G01X4736Y16653D01*
G01X4690Y16699D01*
G01X4644Y16653D01*
G01X4690Y16335D02*
G01X4690Y15699D01*
G01X5536Y16199D02*
G01X5490Y16290D01*
G01X5355Y16335D01*
G01X5217Y16335D01*
G01X5082Y16290D01*
G01X5036Y16199D01*
G01X5082Y16108D01*
G01X5173Y16063D01*
G01X5400Y16017D01*
G01X5490Y15972D01*
G01X5536Y15881D01*
G01X5536Y15835D01*
G01X5490Y15744D01*
G01X5355Y15699D01*
G01X5217Y15699D01*
G01X5082Y15744D01*
G01X5036Y15835D01*
G01X5972Y16653D02*
G01X5972Y15881D01*
G01X6018Y15744D01*
G01X6109Y15699D01*
G01X6200Y15699D01*
G01X5835Y16335D02*
G01X6155Y16335D01*
G01X6727Y16335D02*
G01X6635Y16290D01*
G01X6544Y16199D01*
G01X6500Y16063D01*
G01X6500Y15972D01*
G01X6544Y15835D01*
G01X6635Y15744D01*
G01X6727Y15699D01*
G01X6864Y15699D01*
G01X6955Y15744D01*
G01X7044Y15835D01*
G01X7090Y15972D01*
G01X7090Y16063D01*
G01X7044Y16199D01*
G01X6955Y16290D01*
G01X6864Y16335D01*
G01X6727Y16335D01*
G01X7390Y16335D02*
G01X7390Y15381D01*
G01X7390Y16199D02*
G01X7481Y16290D01*
G01X7572Y16335D01*
G01X7709Y16335D01*
G01X7800Y16290D01*
G01X7890Y16199D01*
G01X7935Y16063D01*
G01X7935Y15972D01*
G01X7890Y15835D01*
G01X7800Y15744D01*
G01X7709Y15699D01*
G01X7572Y15699D01*
G01X7481Y15744D01*
G01X7390Y15835D01*
G01X8235Y16653D02*
G01X8235Y15699D01*
G01X8235Y16153D02*
G01X8372Y16290D01*
G01X8464Y16335D01*
G01X8600Y16335D01*
G01X8690Y16290D01*
G01X8735Y16153D01*
G01X8735Y15699D01*
G01X9035Y16063D02*
G01X9581Y16063D01*
G01X9581Y16153D01*
G01X9535Y16244D01*
G01X9490Y16290D01*
G01X9400Y16335D01*
G01X9264Y16335D01*
G01X9172Y16290D01*
G01X9081Y16199D01*
G01X9035Y16063D01*
G01X9035Y15972D01*
G01X9081Y15835D01*
G01X9172Y15744D01*
G01X9264Y15699D01*
G01X9400Y15699D01*
G01X9490Y15744D01*
G01X9581Y15835D01*
G01X9881Y16335D02*
G01X9881Y15699D01*
G01X9881Y16063D02*
G01X9927Y16199D01*
G01X10018Y16290D01*
G01X10109Y16335D01*
G01X10244Y16335D01*
G01X11244Y16653D02*
G01X11244Y15699D01*
G01X11244Y16653D02*
G01X11609Y15699D01*
G01X11972Y16653D02*
G01X11609Y15699D01*
G01X11972Y16653D02*
G01X11972Y15699D01*
G01X13427Y16653D02*
G01X13427Y15926D01*
G01X13381Y15790D01*
G01X13335Y15744D01*
G01X13244Y15699D01*
G01X13155Y15699D01*
G01X13064Y15744D01*
G01X13018Y15790D01*
G01X12972Y15926D01*
G01X12972Y16017D01*
G01X13955Y16335D02*
G01X13864Y16290D01*
G01X13772Y16199D01*
G01X13727Y16063D01*
G01X13727Y15972D01*
G01X13772Y15835D01*
G01X13864Y15744D01*
G01X13955Y15699D01*
G01X14090Y15699D01*
G01X14181Y15744D01*
G01X14272Y15835D01*
G01X14318Y15972D01*
G01X14318Y16063D01*
G01X14272Y16199D01*
G01X14181Y16290D01*
G01X14090Y16335D01*
G01X13955Y16335D01*
G01X14618Y16653D02*
G01X14618Y15699D01*
G01X14618Y16153D02*
G01X14755Y16290D01*
G01X14844Y16335D01*
G01X14981Y16335D01*
G01X15072Y16290D01*
G01X15118Y16153D01*
G01X15118Y15699D01*
G01X15418Y16335D02*
G01X15418Y15699D01*
G01X15418Y16153D02*
G01X15555Y16290D01*
G01X15644Y16335D01*
G01X15781Y16335D01*
G01X15872Y16290D01*
G01X15918Y16153D01*
G01X15918Y15699D01*
G01X16718Y16199D02*
G01X16672Y16290D01*
G01X16535Y16335D01*
G01X16400Y16335D01*
G01X16264Y16290D01*
G01X16218Y16199D01*
G01X16264Y16108D01*
G01X16355Y16063D01*
G01X16581Y16017D01*
G01X16672Y15972D01*
G01X16718Y15881D01*
G01X16718Y15835D01*
G01X16672Y15744D01*
G01X16535Y15699D01*
G01X16400Y15699D01*
G01X16264Y15744D01*
G01X16218Y15835D01*
G01X17155Y16653D02*
G01X17155Y15881D01*
G01X17200Y15744D01*
G01X17290Y15699D01*
G01X17381Y15699D01*
G01X17018Y16335D02*
G01X17335Y16335D01*
G01X17909Y16335D02*
G01X17818Y16290D01*
G01X17727Y16199D01*
G01X17681Y16063D01*
G01X17681Y15972D01*
G01X17727Y15835D01*
G01X17818Y15744D01*
G01X17909Y15699D01*
G01X18044Y15699D01*
G01X18135Y15744D01*
G01X18227Y15835D01*
G01X18272Y15972D01*
G01X18272Y16063D01*
G01X18227Y16199D01*
G01X18135Y16290D01*
G01X18044Y16335D01*
G01X17909Y16335D01*
G01X18572Y16335D02*
G01X18572Y15699D01*
G01X18572Y16153D02*
G01X18709Y16290D01*
G01X18800Y16335D01*
G01X18935Y16335D01*
G01X19027Y16290D01*
G01X19072Y16153D01*
G01X19072Y15699D01*
G54D13*
G01X18442Y9421D03*
G01X18440Y8919D03*
G01X18439Y8419D03*
G01X18439Y7919D03*
G01X18439Y7419D03*
G01X18439Y6919D03*
G01X18439Y6419D03*
G01X18439Y5921D03*
G01X18439Y5421D03*
G01X18439Y4921D03*
G01X18439Y4421D03*
G01X18439Y3919D03*
G01X18439Y3419D03*
G01X18439Y2919D03*
G01X11360Y9422D03*
G01X11360Y8919D03*
G01X11359Y8421D03*
G01X11359Y7921D03*
G01X11359Y7421D03*
G01X11359Y6921D03*
G01X11359Y6421D03*
G01X11357Y5921D03*
G01X11357Y5421D03*
G01X11357Y4921D03*
G01X11357Y4421D03*
G01X11359Y3921D03*
G01X11359Y3421D03*
G01X11359Y2921D03*
G54D14*
G01X12668Y2290D03*
G01X13168Y2290D03*
G01X13668Y2290D03*
G01X14168Y2288D03*
G01X14668Y2288D03*
G01X15168Y2288D03*
G01X15668Y2288D03*
G01X16168Y2290D03*
G01X16668Y2290D03*
G01X17168Y2290D03*
G54D15*
G01X14899Y6495D03*
G54D16*
G01X7070Y4000D03*
G01X7730Y4000D03*
G01X11530Y12800D03*
G01X10870Y12800D03*
G54D17*
G01X20100Y5800D03*
G01X20700Y5800D03*
G01X20200Y3100D03*
G01X20800Y3100D03*
G01X18900Y1700D03*
G01X19500Y1700D03*
G54D18*
G01X3785Y5220D03*
G01X3785Y7779D03*
G01X2014Y7779D03*
G01X2014Y5220D03*
G01X3785Y1720D03*
G01X3785Y4279D03*
G01X2014Y4279D03*
G01X2014Y1720D03*
G54D19*
G01X9700Y10099D03*
G01X9700Y11099D03*
G01X9700Y12099D03*
G54D20*
G01X2900Y13900D03*
G54D21*
G01X1900Y13900D03*
G01X17600Y13700D03*
G01X16600Y13700D03*
G01X15600Y13700D03*
G01X14600Y13700D03*
G01X13600Y13700D03*
G54D20*
G01X12600Y13700D03*
G01X9700Y4000D03*
G54D22*
G01X7950Y1925D02*
G01X7950Y2375D01*
G01X7450Y1925D02*
G01X7450Y2375D01*
G01X6950Y1925D02*
G01X6950Y2375D01*
M00*
M02*
