G04 Layer: TopSilkLayer*
G04 EasyEDA v5.9.42, Mon, 25 Mar 2019 00:53:44 GMT*
G04 6dd78dc2daa24722afde4913ee835c01*
G04 Gerber Generator version 0.2*
G04 Scale: 100 percent, Rotated: No, Reflected: No *
G04 Dimensions in inches *
G04 leading zeros omitted , absolute positions ,2 integer and 4 decimal *
%FSLAX24Y24*%
%MOIN*%
G90*
G70D02*

%ADD22C,0.010000*%
%ADD23C,0.008000*%
%ADD24C,0.007992*%
%ADD25C,0.007874*%
%ADD26C,0.007000*%
%ADD27C,0.006000*%

%LPD*%
G54D22*
G01X1717Y5357D02*
G01X4040Y5357D01*
G01X4040Y7640D01*
G01X1717Y7640D01*
G01X1717Y5357D01*
G01X1717Y1857D02*
G01X4040Y1857D01*
G01X4040Y4140D01*
G01X1717Y4140D01*
G01X1717Y1857D01*
G54D23*
G01X12289Y14569D02*
G01X11539Y14569D01*
G01X11539Y13569D01*
G01X17539Y13569D01*
G01X17539Y14569D01*
G54D24*
G01X17539Y14569D02*
G01X12289Y14569D01*
G54D23*
G01X8569Y7390D02*
G01X7569Y7390D01*
G01X7569Y8390D01*
G01X8569Y8390D01*
G01X8569Y7640D01*
G54D24*
G01X8569Y7390D02*
G01X8569Y7640D01*
G54D22*
G01X10869Y12625D02*
G01X17956Y12625D01*
G01X10869Y2587D02*
G01X17955Y2584D01*
G01X17956Y12625D02*
G01X17956Y2586D01*
G01X10868Y12626D02*
G01X10868Y2586D01*
G01X10868Y10263D02*
G01X17955Y10263D01*
G54D25*
G01X12051Y10817D02*
G01X12050Y12232D01*
G01X12838Y12232D01*
G01X12838Y11051D01*
G01X13625Y11051D01*
G01X13625Y12232D01*
G01X14413Y12232D01*
G01X14413Y11051D01*
G01X15200Y11051D01*
G01X15200Y12232D01*
G01X16775Y12232D01*
G01X16775Y10657D01*
G01X15987Y10657D02*
G01X15987Y12232D01*
G54D22*
G01X6530Y2690D02*
G01X8089Y2690D01*
G01X19189Y7790D02*
G01X20230Y7790D01*
G01X20230Y7290D01*
G01X19189Y7290D01*
G01X19189Y7790D01*
G01X19660Y7690D02*
G01X19660Y7390D01*
G01X19710Y7469D01*
G01X19760Y7540D01*
G01X19710Y7609D01*
G01X19660Y7690D01*
G01X19689Y7640D02*
G01X19689Y7440D01*
G01X19710Y7609D02*
G01X19710Y7469D01*
G01X19150Y6409D02*
G01X20189Y6409D01*
G01X20189Y5909D01*
G01X19150Y5909D01*
G01X19150Y6409D01*
G01X19619Y6309D02*
G01X19619Y6009D01*
G01X19669Y6090D01*
G01X19719Y6159D01*
G01X19669Y6230D01*
G01X19619Y6309D01*
G01X19650Y6259D02*
G01X19650Y6059D01*
G01X19669Y6230D02*
G01X19669Y6090D01*
G01X19189Y4909D02*
G01X20230Y4909D01*
G01X20230Y4409D01*
G01X19189Y4409D01*
G01X19189Y4909D01*
G01X19660Y4809D02*
G01X19660Y4509D01*
G01X19710Y4590D01*
G01X19760Y4659D01*
G01X19710Y4730D01*
G01X19660Y4809D01*
G01X19689Y4759D02*
G01X19689Y4559D01*
G01X19710Y4730D02*
G01X19710Y4590D01*
G54D26*
G01X4300Y5700D02*
G01X4728Y5700D01*
G01X4300Y5986D02*
G01X4586Y5700D01*
G01X4484Y5801D02*
G01X4728Y5986D01*
G01X4300Y6121D02*
G01X4728Y6121D01*
G01X4300Y6121D02*
G01X4300Y6386D01*
G01X4503Y6121D02*
G01X4503Y6284D01*
G01X4728Y6121D02*
G01X4728Y6386D01*
G01X4300Y6521D02*
G01X4503Y6686D01*
G01X4728Y6686D01*
G01X4300Y6850D02*
G01X4503Y6686D01*
G01X4380Y6984D02*
G01X4361Y7025D01*
G01X4300Y7086D01*
G01X4728Y7086D01*
G01X4400Y2300D02*
G01X4828Y2300D01*
G01X4400Y2586D02*
G01X4686Y2300D01*
G01X4584Y2401D02*
G01X4828Y2586D01*
G01X4400Y2721D02*
G01X4828Y2721D01*
G01X4400Y2721D02*
G01X4400Y2986D01*
G01X4603Y2721D02*
G01X4603Y2884D01*
G01X4828Y2721D02*
G01X4828Y2986D01*
G01X4400Y3121D02*
G01X4603Y3286D01*
G01X4828Y3286D01*
G01X4400Y3450D02*
G01X4603Y3286D01*
G01X4501Y3605D02*
G01X4480Y3605D01*
G01X4440Y3625D01*
G01X4419Y3646D01*
G01X4400Y3686D01*
G01X4400Y3769D01*
G01X4419Y3809D01*
G01X4440Y3830D01*
G01X4480Y3850D01*
G01X4521Y3850D01*
G01X4563Y3830D01*
G01X4625Y3788D01*
G01X4828Y3584D01*
G01X4828Y3871D01*
G01X14339Y15170D02*
G01X14339Y14741D01*
G01X14339Y15170D02*
G01X14523Y15170D01*
G01X14585Y15150D01*
G01X14606Y15130D01*
G01X14626Y15089D01*
G01X14626Y15027D01*
G01X14606Y14986D01*
G01X14585Y14966D01*
G01X14523Y14945D01*
G01X14339Y14945D01*
G01X14760Y15089D02*
G01X14802Y15109D01*
G01X14864Y15170D01*
G01X14864Y14741D01*
G01X7669Y7189D02*
G01X7669Y6760D01*
G01X7669Y7189D02*
G01X7853Y7189D01*
G01X7914Y7169D01*
G01X7935Y7149D01*
G01X7956Y7108D01*
G01X7956Y7046D01*
G01X7935Y7005D01*
G01X7914Y6985D01*
G01X7853Y6964D01*
G01X7669Y6964D01*
G01X8111Y7087D02*
G01X8111Y7108D01*
G01X8131Y7149D01*
G01X8152Y7169D01*
G01X8193Y7189D01*
G01X8275Y7189D01*
G01X8315Y7169D01*
G01X8336Y7149D01*
G01X8356Y7108D01*
G01X8356Y7067D01*
G01X8336Y7026D01*
G01X8296Y6964D01*
G01X8090Y6760D01*
G01X8377Y6760D01*
G54D27*
G01X14400Y13155D02*
G01X14400Y12848D01*
G01X14419Y12786D01*
G01X14460Y12746D01*
G01X14522Y12726D01*
G01X14564Y12726D01*
G01X14625Y12746D01*
G01X14665Y12786D01*
G01X14685Y12848D01*
G01X14685Y13155D01*
G01X14821Y13073D02*
G01X14861Y13094D01*
G01X14923Y13155D01*
G01X14923Y12726D01*
G54D26*
G01X12298Y10035D02*
G01X12298Y9653D01*
G01X12298Y10035D02*
G01X12534Y10035D01*
G01X12298Y9853D02*
G01X12443Y9853D01*
G01X12298Y9653D02*
G01X12534Y9653D01*
G01X12909Y9981D02*
G01X12873Y10017D01*
G01X12818Y10035D01*
G01X12745Y10035D01*
G01X12691Y10017D01*
G01X12654Y9981D01*
G01X12654Y9944D01*
G01X12673Y9908D01*
G01X12691Y9890D01*
G01X12727Y9872D01*
G01X12836Y9835D01*
G01X12873Y9817D01*
G01X12891Y9799D01*
G01X12909Y9762D01*
G01X12909Y9708D01*
G01X12873Y9672D01*
G01X12818Y9653D01*
G01X12745Y9653D01*
G01X12691Y9672D01*
G01X12654Y9708D01*
G01X13029Y10035D02*
G01X13029Y9653D01*
G01X13029Y10035D02*
G01X13193Y10035D01*
G01X13247Y10017D01*
G01X13265Y9999D01*
G01X13283Y9962D01*
G01X13283Y9908D01*
G01X13265Y9872D01*
G01X13247Y9853D01*
G01X13193Y9835D01*
G01X13029Y9835D01*
G01X13683Y10035D02*
G01X13774Y9653D01*
G01X13865Y10035D02*
G01X13774Y9653D01*
G01X13865Y10035D02*
G01X13956Y9653D01*
G01X14047Y10035D02*
G01X13956Y9653D01*
G01X14167Y10035D02*
G01X14167Y9653D01*
G01X14167Y10035D02*
G01X14331Y10035D01*
G01X14385Y10017D01*
G01X14403Y9999D01*
G01X14422Y9962D01*
G01X14422Y9926D01*
G01X14403Y9890D01*
G01X14385Y9872D01*
G01X14331Y9853D01*
G01X14167Y9853D01*
G01X14294Y9853D02*
G01X14422Y9653D01*
G01X14651Y10035D02*
G01X14614Y10017D01*
G01X14578Y9981D01*
G01X14560Y9944D01*
G01X14542Y9890D01*
G01X14542Y9799D01*
G01X14560Y9744D01*
G01X14578Y9708D01*
G01X14614Y9672D01*
G01X14651Y9653D01*
G01X14723Y9653D01*
G01X14760Y9672D01*
G01X14796Y9708D01*
G01X14814Y9744D01*
G01X14833Y9799D01*
G01X14833Y9890D01*
G01X14814Y9944D01*
G01X14796Y9981D01*
G01X14760Y10017D01*
G01X14723Y10035D01*
G01X14651Y10035D01*
G01X15062Y10035D02*
G01X15025Y10017D01*
G01X14989Y9981D01*
G01X14971Y9944D01*
G01X14953Y9890D01*
G01X14953Y9799D01*
G01X14971Y9744D01*
G01X14989Y9708D01*
G01X15025Y9672D01*
G01X15062Y9653D01*
G01X15134Y9653D01*
G01X15171Y9672D01*
G01X15207Y9708D01*
G01X15225Y9744D01*
G01X15243Y9799D01*
G01X15243Y9890D01*
G01X15225Y9944D01*
G01X15207Y9981D01*
G01X15171Y10017D01*
G01X15134Y10035D01*
G01X15062Y10035D01*
G01X15363Y10035D02*
G01X15363Y9653D01*
G01X15363Y10035D02*
G01X15509Y9653D01*
G01X15654Y10035D02*
G01X15509Y9653D01*
G01X15654Y10035D02*
G01X15654Y9653D01*
G01X16091Y10035D02*
G01X16291Y10035D01*
G01X16182Y9890D01*
G01X16236Y9890D01*
G01X16273Y9872D01*
G01X16291Y9853D01*
G01X16309Y9799D01*
G01X16309Y9762D01*
G01X16291Y9708D01*
G01X16254Y9672D01*
G01X16200Y9653D01*
G01X16145Y9653D01*
G01X16091Y9672D01*
G01X16073Y9690D01*
G01X16054Y9726D01*
G01X16447Y9944D02*
G01X16447Y9962D01*
G01X16465Y9999D01*
G01X16483Y10017D01*
G01X16520Y10035D01*
G01X16593Y10035D01*
G01X16629Y10017D01*
G01X16647Y9999D01*
G01X16665Y9962D01*
G01X16665Y9926D01*
G01X16647Y9890D01*
G01X16611Y9835D01*
G01X16429Y9653D01*
G01X16683Y9653D01*
G54D27*
G01X8326Y1950D02*
G01X8633Y1950D01*
G01X8695Y1969D01*
G01X8736Y2011D01*
G01X8756Y2073D01*
G01X8756Y2113D01*
G01X8736Y2175D01*
G01X8695Y2215D01*
G01X8633Y2236D01*
G01X8326Y2236D01*
G01X8429Y2392D02*
G01X8408Y2392D01*
G01X8367Y2411D01*
G01X8347Y2432D01*
G01X8326Y2473D01*
G01X8326Y2555D01*
G01X8347Y2596D01*
G01X8367Y2617D01*
G01X8408Y2636D01*
G01X8449Y2636D01*
G01X8490Y2617D01*
G01X8551Y2576D01*
G01X8756Y2371D01*
G01X8756Y2657D01*
G01X7189Y4805D02*
G01X7189Y4376D01*
G01X7189Y4805D02*
G01X7373Y4805D01*
G01X7435Y4786D01*
G01X7456Y4765D01*
G01X7476Y4725D01*
G01X7476Y4684D01*
G01X7456Y4642D01*
G01X7435Y4621D01*
G01X7373Y4601D01*
G01X7189Y4601D01*
G01X7332Y4601D02*
G01X7476Y4376D01*
G01X7610Y4725D02*
G01X7652Y4744D01*
G01X7714Y4805D01*
G01X7714Y4376D01*
G01X8520Y10200D02*
G01X8520Y9771D01*
G01X8520Y10200D02*
G01X8704Y10200D01*
G01X8765Y10180D01*
G01X8786Y10160D01*
G01X8806Y10119D01*
G01X8806Y10078D01*
G01X8786Y10037D01*
G01X8765Y10016D01*
G01X8704Y9996D01*
G01X8520Y9996D01*
G01X8663Y9996D02*
G01X8806Y9771D01*
G01X8962Y10098D02*
G01X8962Y10119D01*
G01X8982Y10160D01*
G01X9003Y10180D01*
G01X9044Y10200D01*
G01X9125Y10200D01*
G01X9166Y10180D01*
G01X9187Y10160D01*
G01X9207Y10119D01*
G01X9207Y10078D01*
G01X9187Y10037D01*
G01X9146Y9975D01*
G01X8941Y9771D01*
G01X9228Y9771D01*
G01X18779Y7079D02*
G01X18779Y6650D01*
G01X18779Y7079D02*
G01X18963Y7079D01*
G01X19024Y7059D01*
G01X19045Y7038D01*
G01X19065Y6997D01*
G01X19065Y6957D01*
G01X19045Y6916D01*
G01X19024Y6895D01*
G01X18963Y6875D01*
G01X18779Y6875D01*
G01X18922Y6875D02*
G01X19065Y6650D01*
G01X19200Y6834D02*
G01X19568Y6834D01*
G01X19703Y7079D02*
G01X19703Y6650D01*
G01X19703Y6650D02*
G01X19949Y6650D01*
G01X20084Y7079D02*
G01X20084Y6650D01*
G01X20084Y7079D02*
G01X20350Y7079D01*
G01X20084Y6875D02*
G01X20247Y6875D01*
G01X20084Y6650D02*
G01X20350Y6650D01*
G01X20485Y7079D02*
G01X20485Y6650D01*
G01X20485Y7079D02*
G01X20628Y7079D01*
G01X20689Y7059D01*
G01X20730Y7018D01*
G01X20751Y6977D01*
G01X20771Y6916D01*
G01X20771Y6813D01*
G01X20751Y6752D01*
G01X20730Y6711D01*
G01X20689Y6670D01*
G01X20628Y6650D01*
G01X20485Y6650D01*
G01X18760Y5589D02*
G01X18760Y5160D01*
G01X18760Y5589D02*
G01X18944Y5589D01*
G01X19005Y5569D01*
G01X19026Y5549D01*
G01X19046Y5508D01*
G01X19046Y5467D01*
G01X19026Y5426D01*
G01X19005Y5405D01*
G01X18944Y5385D01*
G01X18760Y5385D02*
G01X18944Y5385D01*
G01X19005Y5364D01*
G01X19026Y5344D01*
G01X19046Y5303D01*
G01X19046Y5242D01*
G01X19026Y5201D01*
G01X19005Y5180D01*
G01X18944Y5160D01*
G01X18760Y5160D01*
G01X19181Y5344D02*
G01X19550Y5344D01*
G01X19685Y5589D02*
G01X19685Y5160D01*
G01X19685Y5160D02*
G01X19930Y5160D01*
G01X20065Y5589D02*
G01X20065Y5160D01*
G01X20065Y5589D02*
G01X20331Y5589D01*
G01X20065Y5385D02*
G01X20229Y5385D01*
G01X20065Y5160D02*
G01X20331Y5160D01*
G01X20466Y5589D02*
G01X20466Y5160D01*
G01X20466Y5589D02*
G01X20609Y5589D01*
G01X20670Y5569D01*
G01X20711Y5528D01*
G01X20732Y5487D01*
G01X20752Y5426D01*
G01X20752Y5324D01*
G01X20732Y5262D01*
G01X20711Y5221D01*
G01X20670Y5180D01*
G01X20609Y5160D01*
G01X20466Y5160D01*
G01X18987Y4006D02*
G01X18967Y4047D01*
G01X18926Y4088D01*
G01X18885Y4109D01*
G01X18803Y4109D01*
G01X18762Y4088D01*
G01X18721Y4047D01*
G01X18701Y4006D01*
G01X18680Y3945D01*
G01X18680Y3843D01*
G01X18701Y3781D01*
G01X18721Y3740D01*
G01X18762Y3700D01*
G01X18803Y3679D01*
G01X18885Y3679D01*
G01X18926Y3700D01*
G01X18967Y3740D01*
G01X18987Y3781D01*
G01X18987Y3843D01*
G01X18885Y3843D02*
G01X18987Y3843D01*
G01X19122Y3863D02*
G01X19490Y3863D01*
G01X19625Y4109D02*
G01X19625Y3679D01*
G01X19625Y3679D02*
G01X19871Y3679D01*
G01X20006Y4109D02*
G01X20006Y3679D01*
G01X20006Y4109D02*
G01X20272Y4109D01*
G01X20006Y3904D02*
G01X20169Y3904D01*
G01X20006Y3679D02*
G01X20272Y3679D01*
G01X20407Y4109D02*
G01X20407Y3679D01*
G01X20407Y4109D02*
G01X20550Y4109D01*
G01X20611Y4088D01*
G01X20652Y4047D01*
G01X20672Y4006D01*
G01X20693Y3945D01*
G01X20693Y3843D01*
G01X20672Y3781D01*
G01X20652Y3740D01*
G01X20611Y3700D01*
G01X20550Y3679D01*
G01X20407Y3679D01*
G54D22*
G75*
G01X6530Y2691D02*
G03X8090Y2691I780J-590D01*
G01*
G75*
G01X3176Y6482D02*
G03X3176Y6482I-295J0D01*
G01*
G75*
G01X3570Y6482D02*
G03X3570Y6482I-689J0D01*
G01*
G75*
G01X3176Y2982D02*
G03X3176Y2982I-295J0D01*
G01*
G75*
G01X3570Y2982D02*
G03X3570Y2982I-689J0D01*
G01*
M00*
M02*
