G04 Layer: TopPasteMaskLayer*
G04 EasyEDA v5.9.42, Mon, 25 Mar 2019 00:53:44 GMT*
G04 6dd78dc2daa24722afde4913ee835c01*
G04 Gerber Generator version 0.2*
G04 Scale: 100 percent, Rotated: No, Reflected: No *
G04 Dimensions in inches *
G04 leading zeros omitted , absolute positions ,2 integer and 4 decimal *
%FSLAX24Y24*%
%MOIN*%
G90*
G70D02*

%ADD13R,0.086614X0.039370*%
%ADD14R,0.039370X0.086614*%
%ADD15R,0.157480X0.157480*%
%ADD16R,0.043300X0.039400*%
%ADD17R,0.030000X0.035000*%

%LPD*%
G54D13*
G01X17942Y9691D03*
G01X17941Y9189D03*
G01X17940Y8690D03*
G01X17940Y8190D03*
G01X17940Y7690D03*
G01X17940Y7190D03*
G01X17940Y6690D03*
G01X17939Y6191D03*
G01X17939Y5691D03*
G01X17939Y5191D03*
G01X17939Y4691D03*
G01X17940Y4190D03*
G01X17940Y3690D03*
G01X17940Y3190D03*
G01X10860Y9692D03*
G01X10860Y9190D03*
G01X10859Y8691D03*
G01X10859Y8191D03*
G01X10859Y7691D03*
G01X10859Y7191D03*
G01X10859Y6691D03*
G01X10858Y6192D03*
G01X10858Y5692D03*
G01X10858Y5192D03*
G01X10858Y4692D03*
G01X10859Y4191D03*
G01X10859Y3691D03*
G01X10859Y3191D03*
G54D14*
G01X12168Y2560D03*
G01X12668Y2560D03*
G01X13168Y2560D03*
G01X13667Y2559D03*
G01X14167Y2559D03*
G01X14667Y2559D03*
G01X15167Y2559D03*
G01X15668Y2560D03*
G01X16168Y2560D03*
G01X16668Y2560D03*
G54D15*
G01X14399Y6765D03*
G54D16*
G01X6860Y4080D03*
G01X7519Y4080D03*
G01X8600Y9219D03*
G01X9260Y9219D03*
G54D17*
G01X19410Y7540D03*
G01X20010Y7540D03*
G01X19369Y6159D03*
G01X19969Y6159D03*
G01X19410Y4659D03*
G01X20010Y4659D03*
M00*
M02*
