;PTH Drill file created by EasyEDA 
M48
INCH,LZ,00.0000
;Holesize 1 = 0.028 INCH
T01C0.028
;Holesize 2 = 0.035 INCH
T02C0.035
;Holesize 3 = 0.040 INCH
T03C0.040
;Holesize 4 = 0.044 INCH
T04C0.044
%
G05
G90
T01
X+007950Y+002150
X+006950Y+002150
T02
X+002900Y+013900
X+001900Y+013900
X+017600Y+013700
X+016600Y+013700
X+015600Y+013700
X+014600Y+013700
X+013600Y+013700
X+012600Y+013700
X+009700Y+004000
T03
X+003785Y+005220
X+003785Y+007779
X+002014Y+007779
X+002014Y+005220
X+003785Y+001720
X+003785Y+004279
X+002014Y+004279
X+002014Y+001720
T04
X+009700Y+010099
X+009700Y+011099
X+009700Y+012099
M30
