G04 Layer: TopLayer*
G04 EasyEDA v5.9.42, Mon, 25 Mar 2019 00:53:44 GMT*
G04 6dd78dc2daa24722afde4913ee835c01*
G04 Gerber Generator version 0.2*
G04 Scale: 100 percent, Rotated: No, Reflected: No *
G04 Dimensions in inches *
G04 leading zeros omitted , absolute positions ,2 integer and 4 decimal *
%FSLAX24Y24*%
%MOIN*%
G90*
G70D02*

%ADD11C,0.016000*%
%ADD12C,0.020000*%
%ADD13R,0.086614X0.039370*%
%ADD14R,0.039370X0.086614*%
%ADD15R,0.157480X0.157480*%
%ADD16R,0.043300X0.039400*%
%ADD17R,0.030000X0.035000*%
%ADD18C,0.078740*%
%ADD19C,0.072000*%
%ADD20R,0.072000X0.072000*%
%ADD21C,0.039370*%

%LPD*%
G54D11*
G01X17939Y3190D02*
G01X18534Y3190D01*
G01X18534Y3190D02*
G01X19714Y4371D01*
G01X19714Y5348D01*
G01X19664Y5398D01*
G01X19664Y6788D01*
G01X19701Y6825D01*
G01X19701Y11409D01*
G01X17039Y14069D01*
G01X17643Y3190D02*
G01X17939Y3190D01*
G01X17643Y3190D02*
G01X17346Y3190D01*
G01X2013Y1719D02*
G01X2605Y2311D01*
G01X5440Y2311D01*
G01X6448Y1303D01*
G01X16315Y1303D01*
G01X17346Y2332D01*
G01X17346Y3190D01*
G01X4355Y4278D02*
G01X3786Y4278D01*
G01X7810Y2100D02*
G01X7810Y1823D01*
G01X7511Y1525D01*
G01X6682Y1525D01*
G01X4355Y3851D01*
G01X4355Y4278D01*
G01X4355Y4278D01*
G01X4355Y4278D02*
G01X4355Y6082D01*
G01X3232Y7205D01*
G01X3232Y8048D01*
G01X3707Y8523D01*
G01X4119Y8523D01*
G01X5286Y9692D01*
G01X10860Y9692D01*
G01X7810Y2100D02*
G01X10639Y2100D01*
G01X14377Y5836D01*
G01X15246Y5836D01*
G01X17347Y7940D01*
G01X17347Y9690D01*
G01X17942Y9690D02*
G01X17347Y9690D01*
G01X11455Y9692D02*
G01X11455Y12963D01*
G01X12039Y13548D01*
G01X3786Y4278D02*
G01X2844Y5219D01*
G01X2013Y5219D01*
G01X10860Y9692D02*
G01X11455Y9692D01*
G01X12039Y14069D02*
G01X12039Y13548D01*
G01X3786Y5219D02*
G01X3009Y5996D01*
G01X3009Y8140D01*
G01X9440Y14571D01*
G01X13539Y14571D01*
G01X14039Y14069D01*
G01X11452Y8690D02*
G01X14039Y11278D01*
G01X14039Y14069D01*
G01X10859Y8690D02*
G01X11452Y8690D01*
G01X10857Y5692D02*
G01X10264Y5692D01*
G01X8069Y7890D02*
G01X8590Y7890D01*
G01X8590Y7890D02*
G01X8590Y7365D01*
G01X10264Y5692D01*
G01X18534Y7690D02*
G01X18755Y7911D01*
G01X18755Y11355D01*
G01X16039Y14069D01*
G01X17939Y7690D02*
G01X18534Y7690D01*
G01X8600Y9219D02*
G01X5226Y9219D01*
G01X3786Y7778D01*
G01X17939Y5690D02*
G01X18532Y5690D01*
G01X19410Y7540D02*
G01X19098Y7540D01*
G01X19098Y7540D02*
G01X18532Y6973D01*
G01X18532Y5690D01*
G01X17939Y5190D02*
G01X18532Y5190D01*
G01X19369Y6159D02*
G01X19059Y6159D01*
G01X19059Y6159D02*
G01X19059Y5717D01*
G01X18532Y5190D01*
G01X17939Y4690D02*
G01X18532Y4690D01*
G01X19410Y4659D02*
G01X18564Y4659D01*
G01X18532Y4690D01*
G01X10859Y6690D02*
G01X10264Y6690D01*
G01X10265Y9190D02*
G01X10265Y6692D01*
G01X10264Y6690D01*
G01X9260Y9219D02*
G01X10236Y9219D01*
G01X10265Y9190D01*
G01X11339Y9190D02*
G01X13039Y10890D01*
G01X13039Y14069D01*
G01X10860Y9190D02*
G01X11339Y9190D01*
G01X10627Y9190D02*
G01X10860Y9190D01*
G01X10627Y9190D02*
G01X10265Y9190D01*
G01X10264Y6192D02*
G01X9409Y7046D01*
G01X9409Y7525D01*
G01X8543Y8390D01*
G01X7621Y8390D01*
G01X6860Y7630D01*
G01X6860Y4080D01*
G01X10857Y6192D02*
G01X10264Y6192D01*
G01X6860Y3901D02*
G01X6860Y4080D01*
G01X6860Y3901D02*
G01X6860Y3721D01*
G01X6860Y3721D02*
G01X6810Y3671D01*
G01X6810Y2100D01*
G01X8051Y3190D02*
G01X10859Y3190D01*
G01X7519Y3721D02*
G01X8051Y3190D01*
G01X7310Y2100D02*
G01X7310Y2450D01*
G01X8051Y3190D01*
G01X7519Y4080D02*
G01X7519Y3721D01*
G01X20010Y4659D02*
G01X20010Y4323D01*
G01X20010Y4323D02*
G01X16740Y1055D01*
G01X4451Y1055D01*
G01X3786Y1719D01*
G01X19969Y5823D02*
G01X20010Y5784D01*
G01X20010Y4659D01*
G01X19969Y5992D02*
G01X20010Y6032D01*
G01X20010Y7540D01*
G01X19969Y5992D02*
G01X19969Y5823D01*
G01X19969Y6159D02*
G01X19969Y5992D01*
G01X17939Y8190D02*
G01X18534Y8190D01*
G01X18534Y8190D02*
G01X18534Y10576D01*
G01X15039Y14069D01*
G54D12*
G01X2842Y16206D02*
G01X2796Y16297D01*
G01X2705Y16388D01*
G01X2615Y16433D01*
G01X2432Y16433D01*
G01X2342Y16388D01*
G01X2251Y16297D01*
G01X2205Y16206D01*
G01X2159Y16070D01*
G01X2159Y15843D01*
G01X2205Y15706D01*
G01X2251Y15615D01*
G01X2342Y15524D01*
G01X2432Y15479D01*
G01X2615Y15479D01*
G01X2705Y15524D01*
G01X2796Y15615D01*
G01X2842Y15706D01*
G01X3142Y16433D02*
G01X3142Y15479D01*
G01X3142Y15933D02*
G01X3278Y16070D01*
G01X3369Y16115D01*
G01X3505Y16115D01*
G01X3596Y16070D01*
G01X3642Y15933D01*
G01X3642Y15479D01*
G01X3942Y16115D02*
G01X3942Y15479D01*
G01X3942Y15843D02*
G01X3986Y15979D01*
G01X4078Y16070D01*
G01X4169Y16115D01*
G01X4305Y16115D01*
G01X4605Y16433D02*
G01X4651Y16388D01*
G01X4696Y16433D01*
G01X4651Y16479D01*
G01X4605Y16433D01*
G01X4651Y16115D02*
G01X4651Y15479D01*
G01X5496Y15979D02*
G01X5451Y16070D01*
G01X5315Y16115D01*
G01X5178Y16115D01*
G01X5042Y16070D01*
G01X4996Y15979D01*
G01X5042Y15888D01*
G01X5132Y15843D01*
G01X5359Y15797D01*
G01X5451Y15752D01*
G01X5496Y15661D01*
G01X5496Y15615D01*
G01X5451Y15524D01*
G01X5315Y15479D01*
G01X5178Y15479D01*
G01X5042Y15524D01*
G01X4996Y15615D01*
G01X5932Y16433D02*
G01X5932Y15661D01*
G01X5977Y15524D01*
G01X6068Y15479D01*
G01X6160Y15479D01*
G01X5796Y16115D02*
G01X6114Y16115D01*
G01X6686Y16115D02*
G01X6596Y16070D01*
G01X6505Y15979D01*
G01X6460Y15843D01*
G01X6460Y15752D01*
G01X6505Y15615D01*
G01X6596Y15524D01*
G01X6686Y15479D01*
G01X6823Y15479D01*
G01X6914Y15524D01*
G01X7005Y15615D01*
G01X7051Y15752D01*
G01X7051Y15843D01*
G01X7005Y15979D01*
G01X6914Y16070D01*
G01X6823Y16115D01*
G01X6686Y16115D01*
G01X7351Y16115D02*
G01X7351Y15161D01*
G01X7351Y15979D02*
G01X7442Y16070D01*
G01X7532Y16115D01*
G01X7668Y16115D01*
G01X7760Y16070D01*
G01X7851Y15979D01*
G01X7896Y15843D01*
G01X7896Y15752D01*
G01X7851Y15615D01*
G01X7760Y15524D01*
G01X7668Y15479D01*
G01X7532Y15479D01*
G01X7442Y15524D01*
G01X7351Y15615D01*
G01X8196Y16433D02*
G01X8196Y15479D01*
G01X8196Y15933D02*
G01X8332Y16070D01*
G01X8423Y16115D01*
G01X8560Y16115D01*
G01X8651Y16070D01*
G01X8696Y15933D01*
G01X8696Y15479D01*
G01X8996Y15843D02*
G01X9542Y15843D01*
G01X9542Y15933D01*
G01X9496Y16024D01*
G01X9451Y16070D01*
G01X9360Y16115D01*
G01X9223Y16115D01*
G01X9132Y16070D01*
G01X9042Y15979D01*
G01X8996Y15843D01*
G01X8996Y15752D01*
G01X9042Y15615D01*
G01X9132Y15524D01*
G01X9223Y15479D01*
G01X9360Y15479D01*
G01X9451Y15524D01*
G01X9542Y15615D01*
G01X9842Y16115D02*
G01X9842Y15479D01*
G01X9842Y15843D02*
G01X9886Y15979D01*
G01X9977Y16070D01*
G01X10068Y16115D01*
G01X10205Y16115D01*
G01X11205Y16433D02*
G01X11205Y15479D01*
G01X11205Y16433D02*
G01X11568Y15479D01*
G01X11932Y16433D02*
G01X11568Y15479D01*
G01X11932Y16433D02*
G01X11932Y15479D01*
G01X13386Y16433D02*
G01X13386Y15706D01*
G01X13342Y15570D01*
G01X13296Y15524D01*
G01X13205Y15479D01*
G01X13114Y15479D01*
G01X13023Y15524D01*
G01X12977Y15570D01*
G01X12932Y15706D01*
G01X12932Y15797D01*
G01X13914Y16115D02*
G01X13823Y16070D01*
G01X13732Y15979D01*
G01X13686Y15843D01*
G01X13686Y15752D01*
G01X13732Y15615D01*
G01X13823Y15524D01*
G01X13914Y15479D01*
G01X14051Y15479D01*
G01X14142Y15524D01*
G01X14232Y15615D01*
G01X14277Y15752D01*
G01X14277Y15843D01*
G01X14232Y15979D01*
G01X14142Y16070D01*
G01X14051Y16115D01*
G01X13914Y16115D01*
G01X14577Y16433D02*
G01X14577Y15479D01*
G01X14577Y15933D02*
G01X14714Y16070D01*
G01X14805Y16115D01*
G01X14942Y16115D01*
G01X15032Y16070D01*
G01X15077Y15933D01*
G01X15077Y15479D01*
G01X15377Y16115D02*
G01X15377Y15479D01*
G01X15377Y15933D02*
G01X15514Y16070D01*
G01X15605Y16115D01*
G01X15742Y16115D01*
G01X15832Y16070D01*
G01X15877Y15933D01*
G01X15877Y15479D01*
G01X16677Y15979D02*
G01X16632Y16070D01*
G01X16496Y16115D01*
G01X16360Y16115D01*
G01X16223Y16070D01*
G01X16177Y15979D01*
G01X16223Y15888D01*
G01X16314Y15843D01*
G01X16542Y15797D01*
G01X16632Y15752D01*
G01X16677Y15661D01*
G01X16677Y15615D01*
G01X16632Y15524D01*
G01X16496Y15479D01*
G01X16360Y15479D01*
G01X16223Y15524D01*
G01X16177Y15615D01*
G01X17114Y16433D02*
G01X17114Y15661D01*
G01X17160Y15524D01*
G01X17251Y15479D01*
G01X17342Y15479D01*
G01X16977Y16115D02*
G01X17296Y16115D01*
G01X17868Y16115D02*
G01X17777Y16070D01*
G01X17686Y15979D01*
G01X17642Y15843D01*
G01X17642Y15752D01*
G01X17686Y15615D01*
G01X17777Y15524D01*
G01X17868Y15479D01*
G01X18005Y15479D01*
G01X18096Y15524D01*
G01X18186Y15615D01*
G01X18232Y15752D01*
G01X18232Y15843D01*
G01X18186Y15979D01*
G01X18096Y16070D01*
G01X18005Y16115D01*
G01X17868Y16115D01*
G01X18532Y16115D02*
G01X18532Y15479D01*
G01X18532Y15933D02*
G01X18668Y16070D01*
G01X18760Y16115D01*
G01X18896Y16115D01*
G01X18986Y16070D01*
G01X19032Y15933D01*
G01X19032Y15479D01*
G54D13*
G01X17942Y9691D03*
G01X17941Y9189D03*
G01X17940Y8690D03*
G01X17940Y8190D03*
G01X17940Y7690D03*
G01X17940Y7190D03*
G01X17940Y6690D03*
G01X17939Y6191D03*
G01X17939Y5691D03*
G01X17939Y5191D03*
G01X17939Y4691D03*
G01X17940Y4190D03*
G01X17940Y3690D03*
G01X17940Y3190D03*
G01X10860Y9692D03*
G01X10860Y9190D03*
G01X10859Y8691D03*
G01X10859Y8191D03*
G01X10859Y7691D03*
G01X10859Y7191D03*
G01X10859Y6691D03*
G01X10858Y6192D03*
G01X10858Y5692D03*
G01X10858Y5192D03*
G01X10858Y4692D03*
G01X10859Y4191D03*
G01X10859Y3691D03*
G01X10859Y3191D03*
G54D14*
G01X12168Y2560D03*
G01X12668Y2560D03*
G01X13168Y2560D03*
G01X13667Y2559D03*
G01X14167Y2559D03*
G01X14667Y2559D03*
G01X15167Y2559D03*
G01X15668Y2560D03*
G01X16168Y2560D03*
G01X16668Y2560D03*
G54D15*
G01X14399Y6765D03*
G54D16*
G01X6860Y4080D03*
G01X7519Y4080D03*
G01X8600Y9219D03*
G01X9260Y9219D03*
G54D17*
G01X19410Y7540D03*
G01X20010Y7540D03*
G01X19369Y6159D03*
G01X19969Y6159D03*
G01X19410Y4659D03*
G01X20010Y4659D03*
G54D18*
G01X3785Y5220D03*
G01X3785Y7779D03*
G01X2014Y7779D03*
G01X2014Y5220D03*
G01X3785Y1720D03*
G01X3785Y4279D03*
G01X2014Y4279D03*
G01X2014Y1720D03*
G54D19*
G01X17039Y14069D03*
G01X16039Y14069D03*
G01X15039Y14069D03*
G01X14039Y14069D03*
G01X13039Y14069D03*
G54D20*
G01X12039Y14069D03*
G01X8069Y7890D03*
G54D21*
G01X7810Y1903D02*
G01X7810Y2296D01*
G01X7310Y1903D02*
G01X7310Y2296D01*
G01X6810Y1903D02*
G01X6810Y2296D01*
M00*
M02*
